<mxfile host="app.diagrams.net" agent="Mozilla/5.0 (Macintosh; Intel Mac OS X 10.15; rv:142.0) Gecko/20100101 Firefox/142.0" version="28.1.2">
  <diagram name="Page-1" id="qEBaT685dEE6P2He9Xxf">
    <mxGraphModel dx="1018" dy="665" grid="1" gridSize="10" guides="1" tooltips="1" connect="1" arrows="1" fold="1" page="1" pageScale="1" pageWidth="850" pageHeight="1100" math="0" shadow="0">
      <root>
        <mxCell id="0" />
        <mxCell id="1" parent="0" />
        <mxCell id="JjP7CGugrltXD1gjZlI_-5" style="edgeStyle=orthogonalEdgeStyle;rounded=0;orthogonalLoop=1;jettySize=auto;html=1;exitX=1;exitY=0.5;exitDx=0;exitDy=0;entryX=0;entryY=0.5;entryDx=0;entryDy=0;" edge="1" parent="1" source="JjP7CGugrltXD1gjZlI_-1" target="JjP7CGugrltXD1gjZlI_-2">
          <mxGeometry relative="1" as="geometry" />
        </mxCell>
        <mxCell id="JjP7CGugrltXD1gjZlI_-1" value="Make Project Folder" style="rounded=0;whiteSpace=wrap;html=1;" vertex="1" parent="1">
          <mxGeometry x="80" y="120" width="80" height="70" as="geometry" />
        </mxCell>
        <mxCell id="JjP7CGugrltXD1gjZlI_-6" style="edgeStyle=orthogonalEdgeStyle;rounded=0;orthogonalLoop=1;jettySize=auto;html=1;exitX=1;exitY=0.5;exitDx=0;exitDy=0;entryX=0;entryY=0.5;entryDx=0;entryDy=0;" edge="1" parent="1" source="JjP7CGugrltXD1gjZlI_-2" target="JjP7CGugrltXD1gjZlI_-3">
          <mxGeometry relative="1" as="geometry" />
        </mxCell>
        <mxCell id="JjP7CGugrltXD1gjZlI_-2" value="&lt;div&gt;&quot;Move&quot; into&lt;/div&gt;&lt;div&gt;Folder&lt;/div&gt;" style="rounded=0;whiteSpace=wrap;html=1;" vertex="1" parent="1">
          <mxGeometry x="200" y="120" width="80" height="70" as="geometry" />
        </mxCell>
        <mxCell id="JjP7CGugrltXD1gjZlI_-7" style="edgeStyle=orthogonalEdgeStyle;rounded=0;orthogonalLoop=1;jettySize=auto;html=1;exitX=1;exitY=0.5;exitDx=0;exitDy=0;entryX=0;entryY=0.5;entryDx=0;entryDy=0;" edge="1" parent="1" source="JjP7CGugrltXD1gjZlI_-3" target="JjP7CGugrltXD1gjZlI_-4">
          <mxGeometry relative="1" as="geometry" />
        </mxCell>
        <mxCell id="JjP7CGugrltXD1gjZlI_-3" value="&lt;div&gt;Install the packages you&amp;nbsp;&lt;/div&gt;&lt;div&gt;need&lt;/div&gt;" style="rounded=0;whiteSpace=wrap;html=1;" vertex="1" parent="1">
          <mxGeometry x="320" y="120" width="80" height="70" as="geometry" />
        </mxCell>
        <mxCell id="JjP7CGugrltXD1gjZlI_-4" value="Open project in JupyterLab/Rstudio" style="rounded=0;whiteSpace=wrap;html=1;" vertex="1" parent="1">
          <mxGeometry x="440" y="120" width="80" height="70" as="geometry" />
        </mxCell>
      </root>
    </mxGraphModel>
  </diagram>
</mxfile>
